<svg width="41" height="24" viewBox="0 0 41 24" fill="none" xmlns="http://www.w3.org/2000/svg">
<path fill-rule="evenodd" clip-rule="evenodd" d="M40.8568 8.31604C41.2543 13.0881 38.906 20.9563 34.7864 23.8678C34.0148 24.4131 33.3429 23.1539 33.6241 22.2519C34.1161 20.6738 33.7087 18.7509 30.9597 17.2276C30.7831 17.1298 30.6263 17.029 30.4881 16.9254C26.0058 16.377 22.5472 12.8338 22.5472 8.54453C22.5472 3.87519 26.6459 0.0899456 31.702 0.089946C36.6756 0.0899464 40.7229 3.75276 40.8536 8.31684C40.8546 8.31657 40.8557 8.3163 40.8568 8.31604Z" fill="#FF629F"/>
<path fill-rule="evenodd" clip-rule="evenodd" d="M19.0396 8.31604C19.4371 13.0881 17.0888 20.9563 12.9692 23.8678C12.1976 24.4131 11.5257 23.1539 11.8069 22.2519C12.2989 20.6738 11.8915 18.7509 9.14251 17.2276C8.96593 17.1298 8.80905 17.029 8.67087 16.9254C4.18867 16.377 0.73006 12.8338 0.73006 8.54453C0.730061 3.87519 4.82881 0.0899456 9.88487 0.089946C14.8585 0.0899464 18.9058 3.75275 19.0364 8.31683C19.0375 8.31656 19.0385 8.3163 19.0396 8.31604Z" fill="#FF629F"/>
</svg>
