<svg width="19" height="24" viewBox="0 0 19 24" fill="none" xmlns="http://www.w3.org/2000/svg">
<path d="M17.384 20.4923C16.4121 21.9443 15.3816 23.3612 13.8125 23.3847C12.2434 23.4198 11.7399 22.4596 9.95996 22.4596C8.16834 22.4596 7.61798 23.3612 6.13082 23.4198C4.59683 23.4783 3.43755 21.8741 2.45391 20.4572C0.451522 17.5648 -1.08247 12.2368 0.978467 8.65361C1.99723 6.87371 3.82397 5.74956 5.80294 5.71443C7.30181 5.69101 8.73042 6.73319 9.6555 6.73319C10.5689 6.73319 12.3019 5.48023 14.117 5.66759C14.8781 5.70272 17.0093 5.97205 18.3794 7.98615C18.274 8.05641 15.8383 9.48502 15.8617 12.4476C15.8969 15.984 18.9649 17.1667 19 17.1784C18.9649 17.2604 18.5082 18.8646 17.384 20.4923ZM10.6977 1.75648C11.5525 0.784563 12.9694 0.0468396 14.1404 0C14.2926 1.37006 13.7423 2.75183 12.9226 3.73546C12.1146 4.7308 10.7797 5.50365 9.46814 5.39826C9.29249 4.05162 9.94825 2.64644 10.6977 1.75648Z" fill="black"/>
</svg>
