<svg width="41" height="24" viewBox="0 0 41 24" fill="none" xmlns="http://www.w3.org/2000/svg">
<path fill-rule="evenodd" clip-rule="evenodd" d="M0.169017 8.22609C-0.228457 12.9982 2.11985 20.8663 6.23942 23.7778C7.01102 24.3231 7.68291 23.064 7.40169 22.162C6.90968 20.5838 7.31707 18.6609 10.0661 17.1377C10.2427 17.0398 10.3996 16.939 10.5377 16.8355C15.02 16.2871 18.4786 12.7439 18.4786 8.45459C18.4786 3.78525 14.3799 2.66385e-06 9.32381 3.07206e-06C4.35019 3.47361e-06 0.302923 3.66281 0.172256 8.22689C0.171176 8.22662 0.170096 8.22635 0.169017 8.22609Z" fill="#FF629F"/>
<path fill-rule="evenodd" clip-rule="evenodd" d="M21.9862 8.22609C21.5887 12.9982 23.937 20.8663 28.0566 23.7778C28.8282 24.3231 29.5001 23.064 29.2188 22.162C28.7268 20.5838 29.1342 18.6609 31.8832 17.1377C32.0598 17.0398 32.2167 16.939 32.3549 16.8355C36.8371 16.2871 40.2958 12.7439 40.2958 8.45459C40.2958 3.78525 36.197 2.66385e-06 31.1409 3.07206e-06C26.1673 3.47361e-06 22.1201 3.66281 21.9894 8.22689C21.9883 8.22662 21.9872 8.22635 21.9862 8.22609Z" fill="#FF629F"/>
</svg>
