<svg width="335" height="335" viewBox="0 0 335 335" fill="none" xmlns="http://www.w3.org/2000/svg">
<path fill-rule="evenodd" clip-rule="evenodd" d="M165.926 4.46953C166.45 4.46457 166.975 4.46208 167.5 4.46208C168.025 4.46208 168.55 4.46457 169.074 4.46953L168.947 17.8552C168.465 17.8506 167.983 17.8484 167.5 17.8484C167.017 17.8484 166.534 17.8506 166.053 17.8552L165.926 4.46953ZM182.982 5.18804C184.025 5.28635 185.065 5.39449 186.103 5.51237L184.591 18.813C183.639 18.7048 182.684 18.6055 181.726 18.5153L182.982 5.18804ZM148.897 5.51238C149.935 5.39449 150.975 5.28635 152.018 5.18805L153.274 18.5153C152.316 18.6055 151.361 18.7048 150.409 18.813L148.897 5.51238ZM199.865 7.67574C200.893 7.88283 201.918 8.09959 202.939 8.32592L200.041 21.3949C199.105 21.1873 198.165 20.9884 197.222 20.7984L199.865 7.67574ZM132.061 8.32593C133.082 8.0996 134.107 7.88283 135.135 7.67574L137.778 20.7984C136.835 20.9884 135.895 21.1873 134.959 21.3949L132.061 8.32593ZM216.4 11.9243C217.4 12.2384 218.396 12.5618 219.388 12.8946L215.13 25.5857C214.221 25.2805 213.307 24.9838 212.39 24.6957L216.4 11.9243ZM115.612 12.8946C116.604 12.5619 117.6 12.2384 118.6 11.9244L122.61 24.6958C121.693 24.9838 120.779 25.2805 119.87 25.5857L115.612 12.8946ZM232.398 17.8918C233.358 18.3088 234.313 18.7349 235.264 19.1698L229.694 31.3424C228.822 30.9433 227.945 30.5525 227.064 30.1698L232.398 17.8918ZM99.7362 19.1698C100.687 18.7349 101.642 18.3089 102.602 17.8918L107.935 30.1698C107.054 30.5525 106.178 30.9434 105.306 31.3424L99.7362 19.1698ZM247.675 25.5064C248.586 26.0214 249.491 26.5449 250.39 27.0768L243.575 38.5984C242.749 38.1102 241.919 37.6297 241.083 37.157L247.675 25.5064ZM84.6101 27.0768C85.5093 26.5449 86.4141 26.0214 87.3244 25.5064L93.9164 37.157C93.081 37.6297 92.2505 38.1102 91.4252 38.5984L84.6101 27.0768ZM262.069 34.6765C262.92 35.2834 263.765 35.8983 264.603 36.5211L256.623 47.2685C255.853 46.6967 255.077 46.1321 254.296 45.5749L262.069 34.6765ZM70.3964 36.5211C71.2351 35.8983 72.08 35.2834 72.931 34.6765L80.7039 45.5749C79.9226 46.1321 79.1468 46.6967 78.3767 47.2685L70.3964 36.5211ZM275.426 45.2954C276.209 45.9875 276.985 46.6871 277.755 47.3939L268.7 57.2529C267.993 56.6038 267.28 55.9613 266.561 55.3257L275.426 45.2954ZM57.2448 47.394C58.0144 46.6871 58.7909 45.9876 59.574 45.2954L68.4388 55.3257C67.7196 55.9614 67.0066 56.6038 66.2998 57.253L57.2448 47.394ZM287.606 57.2449C288.313 58.0145 289.012 58.7909 289.705 59.5741L279.674 68.4389C279.039 67.7197 278.396 67.0066 277.747 66.2998L287.606 57.2449ZM45.2953 59.5741C45.9875 58.791 46.687 58.0145 47.3939 57.2449L57.2529 66.2999C56.6037 67.0067 55.9613 67.7197 55.3257 68.4389L45.2953 59.5741ZM298.479 70.3964C299.102 71.2351 299.716 72.08 300.323 72.931L289.425 80.7039C288.868 79.9226 288.303 79.1469 287.731 78.3768L298.479 70.3964ZM34.6765 72.931C35.2834 72.08 35.8983 71.2351 36.5211 70.3965L47.2684 78.3768C46.6966 79.1469 46.1321 79.9226 45.5748 80.7039L34.6765 72.931ZM307.923 84.6101C308.455 85.5094 308.979 86.4142 309.494 87.3244L297.843 93.9165C297.37 93.081 296.89 92.2506 296.402 91.4252L307.923 84.6101ZM25.5063 87.3245C26.0213 86.4142 26.5449 85.5094 27.0768 84.6101L38.5984 91.4252C38.1102 92.2506 37.6296 93.0811 37.157 93.9165L25.5063 87.3245ZM315.83 99.7362C316.265 100.687 316.691 101.642 317.108 102.602L304.83 107.935C304.447 107.054 304.057 106.178 303.658 105.306L315.83 99.7362ZM17.8917 102.602C18.3088 101.642 18.7348 100.687 19.1698 99.7363L31.3423 105.306C30.9433 106.178 30.5524 107.055 30.1698 107.935L17.8917 102.602ZM322.105 115.612C322.438 116.604 322.762 117.6 323.076 118.6L310.304 122.61C310.016 121.693 309.719 120.779 309.414 119.87L322.105 115.612ZM11.9243 118.6C12.2384 117.6 12.5618 116.604 12.8945 115.612L25.5856 119.87C25.2805 120.779 24.9838 121.693 24.6957 122.61L11.9243 118.6ZM326.674 132.061C326.9 133.082 327.117 134.107 327.324 135.135L314.202 137.778C314.012 136.835 313.813 135.895 313.605 134.959L326.674 132.061ZM7.67569 135.135C7.88278 134.107 8.09954 133.082 8.32588 132.061L21.3949 134.959C21.1872 135.895 20.9883 136.835 20.7983 137.778L7.67569 135.135ZM329.488 148.897C329.605 149.935 329.714 150.975 329.812 152.018L316.485 153.274C316.394 152.316 316.295 151.361 316.187 150.409L329.488 148.897ZM5.188 152.018C5.2863 150.975 5.39445 149.935 5.51233 148.897L18.813 150.409C18.7048 151.361 18.6055 152.316 18.5152 153.274L5.188 152.018ZM330.53 165.926C330.535 166.45 330.538 166.975 330.538 167.5C330.538 168.025 330.535 168.55 330.53 169.074L317.145 168.947C317.149 168.465 317.152 167.983 317.152 167.5C317.152 167.017 317.149 166.534 317.145 166.053L330.53 165.926ZM4.46204 167.5C4.46204 166.975 4.46452 166.45 4.46948 165.926L17.8552 166.053C17.8506 166.535 17.8483 167.017 17.8483 167.5C17.8483 167.983 17.8506 168.465 17.8552 168.947L4.46948 169.074C4.46452 168.55 4.46204 168.025 4.46204 167.5ZM329.812 182.982C329.714 184.025 329.605 185.065 329.488 186.103L316.187 184.591C316.295 183.639 316.394 182.684 316.485 181.726L329.812 182.982ZM5.51233 186.103C5.39445 185.065 5.28631 184.025 5.188 182.982L18.5152 181.726C18.6055 182.684 18.7048 183.639 18.813 184.591L5.51233 186.103ZM327.324 199.865C327.117 200.893 326.9 201.918 326.674 202.939L313.605 200.041C313.813 199.105 314.012 198.165 314.202 197.222L327.324 199.865ZM8.32589 202.939C8.09955 201.918 7.88279 200.893 7.6757 199.865L20.7983 197.222C20.9883 198.165 21.1872 199.105 21.3949 200.041L8.32589 202.939ZM323.076 216.4C322.762 217.4 322.438 218.396 322.105 219.388L309.414 215.13C309.719 214.221 310.016 213.307 310.304 212.39L323.076 216.4ZM12.8945 219.388C12.5618 218.396 12.2384 217.4 11.9243 216.4L24.6957 212.39C24.9838 213.307 25.2805 214.221 25.5856 215.13L12.8945 219.388ZM317.108 232.398C316.691 233.358 316.265 234.313 315.83 235.264L303.658 229.694C304.057 228.822 304.447 227.945 304.83 227.064L317.108 232.398ZM19.1698 235.264C18.7349 234.313 18.3088 233.358 17.8917 232.398L30.1698 227.065C30.5524 227.945 30.9433 228.822 31.3423 229.694L19.1698 235.264ZM309.494 247.675C308.979 248.586 308.455 249.491 307.923 250.39L296.402 243.575C296.89 242.749 297.37 241.919 297.843 241.083L309.494 247.675ZM27.0768 250.39C26.5449 249.491 26.0214 248.586 25.5063 247.676L37.157 241.084C37.6297 241.919 38.1102 242.749 38.5984 243.575L27.0768 250.39ZM300.323 262.069C299.716 262.92 299.102 263.765 298.479 264.604L287.731 256.623C288.303 255.853 288.868 255.077 289.425 254.296L300.323 262.069ZM36.5211 264.604C35.8983 263.765 35.2834 262.92 34.6765 262.069L45.5748 254.296C46.1321 255.077 46.6967 255.853 47.2685 256.623L36.5211 264.604ZM289.705 275.426C289.012 276.209 288.313 276.985 287.606 277.755L277.747 268.7C278.396 267.993 279.039 267.28 279.674 266.561L289.705 275.426ZM47.3939 277.755C46.6871 276.985 45.9875 276.209 45.2954 275.426L55.3257 266.561C55.9613 267.28 56.6038 267.993 57.2529 268.7L47.3939 277.755ZM277.755 287.606C276.985 288.313 276.209 289.012 275.426 289.705L266.561 279.674C267.28 279.039 267.993 278.396 268.7 277.747L277.755 287.606ZM59.5741 289.705C58.7909 289.012 58.0145 288.313 57.2449 287.606L66.2998 277.747C67.0066 278.396 67.7197 279.039 68.4389 279.674L59.5741 289.705ZM72.931 300.323C72.08 299.717 71.2351 299.102 70.3964 298.479L78.3768 287.731C79.1468 288.303 79.9226 288.868 80.7039 289.425L72.931 300.323ZM264.603 298.479C263.765 299.102 262.92 299.717 262.069 300.323L254.296 289.425C255.077 288.868 255.853 288.303 256.623 287.731L264.603 298.479ZM250.39 307.923C249.491 308.455 248.586 308.979 247.675 309.494L241.083 297.843C241.919 297.37 242.749 296.89 243.575 296.402L250.39 307.923ZM87.3244 309.494C86.4142 308.979 85.5093 308.455 84.6101 307.923L91.4252 296.402C92.2506 296.89 93.081 297.37 93.9165 297.843L87.3244 309.494ZM102.602 317.108C101.642 316.691 100.687 316.265 99.7362 315.83L105.306 303.658C106.178 304.057 107.054 304.448 107.935 304.83L102.602 317.108ZM235.264 315.83C234.313 316.265 233.358 316.691 232.398 317.108L227.064 304.83C227.945 304.448 228.822 304.057 229.694 303.658L235.264 315.83ZM118.6 323.076C117.6 322.762 116.604 322.438 115.612 322.105L119.87 309.414C120.779 309.719 121.693 310.016 122.61 310.304L118.6 323.076ZM219.388 322.105C218.396 322.438 217.4 322.762 216.4 323.076L212.39 310.304C213.307 310.016 214.221 309.719 215.13 309.414L219.388 322.105ZM135.135 327.324C134.107 327.117 133.082 326.9 132.061 326.674L134.959 313.605C135.895 313.813 136.835 314.012 137.778 314.202L135.135 327.324ZM202.939 326.674C201.918 326.9 200.893 327.117 199.865 327.324L197.222 314.202C198.165 314.012 199.105 313.813 200.041 313.605L202.939 326.674ZM152.018 329.812C150.975 329.714 149.935 329.606 148.897 329.488L150.409 316.187C151.361 316.295 152.316 316.394 153.274 316.485L152.018 329.812ZM186.103 329.488C185.065 329.605 184.025 329.714 182.982 329.812L181.726 316.485C182.684 316.394 183.639 316.295 184.591 316.187L186.103 329.488ZM167.5 330.538C166.975 330.538 166.45 330.535 165.926 330.53L166.053 317.145C166.534 317.149 167.017 317.152 167.5 317.152C167.983 317.152 168.465 317.149 168.947 317.145L169.074 330.53C168.55 330.535 168.025 330.538 167.5 330.538Z" fill="black"/>
<path fill-rule="evenodd" clip-rule="evenodd" d="M165.926 0.00724792C166.45 0.00241947 166.975 0 167.5 0C168.025 0 168.55 0.00241947 169.074 0.00724792L168.868 22.3168C168.413 22.3126 167.957 22.3105 167.5 22.3105C167.043 22.3105 166.587 22.3126 166.132 22.3168L165.926 0.00724792ZM114.233 8.65062C115.225 8.31804 116.222 7.99449 117.222 7.68007L123.912 28.964C123.046 29.2362 122.183 29.5164 121.324 29.8043L114.233 8.65062ZM217.778 7.68007C218.778 7.99449 219.775 8.31804 220.767 8.65062L213.676 29.8043C212.817 29.5164 211.954 29.2362 211.088 28.964L217.778 7.68007ZM67.7706 32.9132C68.6095 32.2906 69.4544 31.6757 70.3053 31.0685L83.2648 49.2292C82.5269 49.7557 81.7942 50.289 81.0666 50.8289L67.7706 32.9132ZM264.695 31.0685C265.546 31.6757 266.391 32.2906 267.229 32.9132L253.933 50.8289C253.206 50.289 252.473 49.7557 251.735 49.2292L264.695 31.0685ZM31.0685 70.3053C31.6757 69.4544 32.2906 68.6095 32.9132 67.7706L50.8289 81.0666C50.289 81.7942 49.7557 82.5269 49.2292 83.2648L31.0685 70.3053ZM302.087 67.7706C302.709 68.6095 303.324 69.4544 303.931 70.3053L285.771 83.2648C285.244 82.5269 284.711 81.7942 284.171 81.0666L302.087 67.7706ZM326.349 114.233C326.682 115.225 327.005 116.222 327.32 117.222L306.036 123.912C305.764 123.046 305.484 122.183 305.196 121.324L326.349 114.233ZM7.68007 117.222C7.99449 116.222 8.31804 115.225 8.65062 114.233L29.8043 121.324C29.5164 122.183 29.2362 123.046 28.964 123.912L7.68007 117.222ZM0 167.5C0 166.975 0.00241947 166.45 0.00724792 165.926L22.3168 166.132C22.3126 166.587 22.3105 167.043 22.3105 167.5C22.3105 167.957 22.3126 168.413 22.3168 168.868L0.00724792 169.074C0.00241947 168.55 0 168.025 0 167.5ZM334.993 165.926C334.998 166.45 335 166.975 335 167.5C335 168.025 334.998 168.55 334.993 169.074L312.683 168.868C312.687 168.413 312.69 167.957 312.69 167.5C312.69 167.043 312.687 166.587 312.683 166.132L334.993 165.926ZM8.65062 220.767C8.31804 219.775 7.99449 218.778 7.68007 217.778L28.964 211.088C29.2362 211.954 29.5164 212.817 29.8043 213.676L8.65062 220.767ZM327.32 217.778C327.005 218.778 326.682 219.775 326.349 220.767L305.196 213.676C305.484 212.817 305.764 211.954 306.036 211.088L327.32 217.778ZM32.9132 267.229C32.2906 266.391 31.6757 265.546 31.0685 264.695L49.2292 251.735C49.7557 252.473 50.289 253.206 50.8289 253.933L32.9132 267.229ZM303.931 264.695C303.324 265.546 302.709 266.391 302.087 267.229L284.171 253.933C284.711 253.206 285.244 252.473 285.771 251.735L303.931 264.695ZM70.3053 303.931C69.4544 303.324 68.6095 302.709 67.7706 302.087L81.0666 284.171C81.7942 284.711 82.5269 285.244 83.2648 285.771L70.3053 303.931ZM267.229 302.087C266.391 302.709 265.546 303.324 264.695 303.931L251.735 285.771C252.473 285.244 253.206 284.711 253.933 284.171L267.229 302.087ZM220.767 326.349C219.775 326.682 218.778 327.005 217.778 327.32L211.088 306.036C211.954 305.764 212.817 305.484 213.676 305.196L220.767 326.349ZM117.222 327.32C116.222 327.005 115.225 326.682 114.233 326.349L121.324 305.196C122.183 305.484 123.046 305.764 123.912 306.036L117.222 327.32ZM167.5 335C166.975 335 166.45 334.998 165.926 334.993L166.132 312.683C166.587 312.687 167.043 312.69 167.5 312.69C167.957 312.69 168.413 312.687 168.868 312.683L169.074 334.993C168.55 334.998 168.025 335 167.5 335Z" fill="#FF629F"/>
</svg>
